<?xml version="1.0" encoding="UTF-8" standalone="no"?>
<!DOCTYPE svg PUBLIC "-//W3C//DTD SVG 1.1//EN"
 "http://www.w3.org/Graphics/SVG/1.1/DTD/svg11.dtd">
<!-- Generated by graphviz version 14.1.4 (20260321.0153)
 -->
<!-- Title: LEXICO Pages: 1 -->
<svg width="779pt" height="1212pt"
 viewBox="0.00 0.00 779.00 1212.00" xmlns="http://www.w3.org/2000/svg" xmlns:xlink="http://www.w3.org/1999/xlink">
<g id="graph0" class="graph" transform="scale(1 1) rotate(0) translate(4 1207.59)">
<title>LEXICO</title>
<polygon fill="white" stroke="none" points="-4,4 -4,-1207.59 774.79,-1207.59 774.79,4 -4,4"/>
<!-- start -->
<g id="node1" class="node">
<title>start</title>
<ellipse fill="black" stroke="black" cx="1.8" cy="-612.29" rx="1.8" ry="1.8"/>
</g>
<!-- q0 -->
<g id="node2" class="node">
<title>q0</title>
<ellipse fill="none" stroke="black" cx="67.6" cy="-612.29" rx="27" ry="18"/>
<text xml:space="preserve" text-anchor="middle" x="67.6" y="-606.86" font-family="Helvetica,sans-Serif" font-size="14.00">q0</text>
</g>
<!-- start&#45;&gt;q0 -->
<g id="edge1" class="edge">
<title>start&#45;&gt;q0</title>
<path fill="none" stroke="black" d="M3.91,-612.29C7.21,-612.29 17.46,-612.29 28.73,-612.29"/>
<polygon fill="black" stroke="black" points="28.62,-615.79 38.62,-612.29 28.62,-608.79 28.62,-615.79"/>
</g>
<!-- q1 -->
<g id="node3" class="node">
<title>q1</title>
<ellipse fill="none" stroke="black" cx="276.36" cy="-1110.29" rx="55.55" ry="55.55"/>
<ellipse fill="none" stroke="black" cx="276.36" cy="-1110.29" rx="59.55" ry="59.55"/>
<text xml:space="preserve" text-anchor="middle" x="276.36" y="-1104.86" font-family="Helvetica,sans-Serif" font-size="14.00">q1 (ID/KW)</text>
</g>
<!-- q0&#45;&gt;q1 -->
<g id="edge2" class="edge">
<title>q0&#45;&gt;q1</title>
<path fill="none" stroke="black" d="M69.53,-630.53C72.22,-674.89 81.89,-791.53 112.6,-883.29 137.79,-958.56 146.53,-979.1 195.85,-1041.29 202.99,-1050.29 211.43,-1059.04 220.08,-1067.11"/>
<polygon fill="black" stroke="black" points="217.53,-1069.52 227.3,-1073.61 222.21,-1064.32 217.53,-1069.52"/>
<text xml:space="preserve" text-anchor="middle" x="145.22" y="-1019.8" font-family="Helvetica,sans-Serif" font-size="14.00">letra</text>
</g>
<!-- q2 -->
<g id="node4" class="node">
<title>q2</title>
<ellipse fill="none" stroke="black" cx="276.36" cy="-925.29" rx="69.53" ry="69.53"/>
<ellipse fill="none" stroke="black" cx="276.36" cy="-925.29" rx="73.53" ry="73.53"/>
<text xml:space="preserve" text-anchor="middle" x="276.36" y="-919.86" font-family="Helvetica,sans-Serif" font-size="14.00">q2 (NUM_INT)</text>
</g>
<!-- q0&#45;&gt;q2 -->
<g id="edge3" class="edge">
<title>q0&#45;&gt;q2</title>
<path fill="none" stroke="black" d="M68.94,-630.58C70.42,-665.95 77.69,-745.01 112.6,-799.29 134.86,-833.89 170.02,-862.86 201.97,-884.25"/>
<polygon fill="black" stroke="black" points="199.77,-887 210.06,-889.54 203.6,-881.14 199.77,-887"/>
<text xml:space="preserve" text-anchor="middle" x="145.22" y="-866.34" font-family="Helvetica,sans-Serif" font-size="14.00">dígito</text>
</g>
<!-- q3 -->
<g id="node5" class="node">
<title>q3</title>
<ellipse fill="none" stroke="black" cx="276.36" cy="-782.29" rx="27" ry="18"/>
<text xml:space="preserve" text-anchor="middle" x="276.36" y="-776.86" font-family="Helvetica,sans-Serif" font-size="14.00">q3</text>
</g>
<!-- q0&#45;&gt;q3 -->
<g id="edge4" class="edge">
<title>q0&#45;&gt;q3</title>
<path fill="none" stroke="black" d="M68.9,-630.46C70.44,-660.02 77.98,-718.3 112.6,-749.29 146.91,-780 201.76,-785.23 238.17,-784.83"/>
<polygon fill="black" stroke="black" points="237.88,-788.34 247.78,-784.56 237.69,-781.34 237.88,-788.34"/>
<text xml:space="preserve" text-anchor="middle" x="145.22" y="-781.56" font-family="Helvetica,sans-Serif" font-size="14.00">{</text>
</g>
<!-- q4 -->
<g id="node6" class="node">
<title>q4</title>
<ellipse fill="none" stroke="black" cx="276.36" cy="-707.29" rx="34.6" ry="34.6"/>
<ellipse fill="none" stroke="black" cx="276.36" cy="-707.29" rx="38.6" ry="38.6"/>
<text xml:space="preserve" text-anchor="middle" x="276.36" y="-701.86" font-family="Helvetica,sans-Serif" font-size="14.00">q4 (&lt;)</text>
</g>
<!-- q0&#45;&gt;q4 -->
<g id="edge5" class="edge">
<title>q0&#45;&gt;q4</title>
<path fill="none" stroke="black" d="M90.34,-622.27C123.48,-637.5 187.35,-666.85 230.67,-686.75"/>
<polygon fill="black" stroke="black" points="229.02,-689.84 239.56,-690.84 231.94,-683.48 229.02,-689.84"/>
<text xml:space="preserve" text-anchor="middle" x="145.22" y="-662.24" font-family="Helvetica,sans-Serif" font-size="14.00">&lt;</text>
</g>
<!-- q5 -->
<g id="node7" class="node">
<title>q5</title>
<ellipse fill="none" stroke="black" cx="276.36" cy="-612.29" rx="34.6" ry="34.6"/>
<ellipse fill="none" stroke="black" cx="276.36" cy="-612.29" rx="38.6" ry="38.6"/>
<text xml:space="preserve" text-anchor="middle" x="276.36" y="-606.86" font-family="Helvetica,sans-Serif" font-size="14.00">q5 (&gt;)</text>
</g>
<!-- q0&#45;&gt;q5 -->
<g id="edge6" class="edge">
<title>q0&#45;&gt;q5</title>
<path fill="none" stroke="black" d="M94.79,-612.29C127.69,-612.29 184.84,-612.29 226.05,-612.29"/>
<polygon fill="black" stroke="black" points="225.96,-615.79 235.96,-612.29 225.96,-608.79 225.96,-615.79"/>
<text xml:space="preserve" text-anchor="middle" x="145.22" y="-614.74" font-family="Helvetica,sans-Serif" font-size="14.00">&gt;</text>
</g>
<!-- q6 -->
<g id="node8" class="node">
<title>q6</title>
<ellipse fill="none" stroke="black" cx="276.36" cy="-517.29" rx="34.6" ry="34.6"/>
<ellipse fill="none" stroke="black" cx="276.36" cy="-517.29" rx="38.6" ry="38.6"/>
<text xml:space="preserve" text-anchor="middle" x="276.36" y="-511.86" font-family="Helvetica,sans-Serif" font-size="14.00">q6 (=)</text>
</g>
<!-- q0&#45;&gt;q6 -->
<g id="edge7" class="edge">
<title>q0&#45;&gt;q6</title>
<path fill="none" stroke="black" d="M90.34,-602.3C123.48,-587.07 187.35,-557.72 230.67,-537.82"/>
<polygon fill="black" stroke="black" points="231.94,-541.09 239.56,-533.74 229.02,-534.73 231.94,-541.09"/>
<text xml:space="preserve" text-anchor="middle" x="145.22" y="-594.22" font-family="Helvetica,sans-Serif" font-size="14.00">=</text>
</g>
<!-- q7 -->
<g id="node9" class="node">
<title>q7</title>
<ellipse fill="none" stroke="black" cx="276.36" cy="-425.29" rx="31.6" ry="31.6"/>
<ellipse fill="none" stroke="black" cx="276.36" cy="-425.29" rx="35.6" ry="35.6"/>
<text xml:space="preserve" text-anchor="middle" x="276.36" y="-419.86" font-family="Helvetica,sans-Serif" font-size="14.00">q7 (:)</text>
</g>
<!-- q0&#45;&gt;q7 -->
<g id="edge8" class="edge">
<title>q0&#45;&gt;q7</title>
<path fill="none" stroke="black" d="M78.2,-595.3C86.48,-581.3 99.18,-561.27 112.6,-545.54 145.15,-507.36 155.12,-498.58 195.85,-469.29 207.67,-460.78 221.31,-452.69 233.92,-445.82"/>
<polygon fill="black" stroke="black" points="235.23,-449.08 242.41,-441.3 231.94,-442.9 235.23,-449.08"/>
<text xml:space="preserve" text-anchor="middle" x="145.22" y="-547.99" font-family="Helvetica,sans-Serif" font-size="14.00">:</text>
</g>
<!-- q14 -->
<g id="node10" class="node">
<title>q14</title>
<ellipse fill="none" stroke="black" cx="276.36" cy="-294.29" rx="73.02" ry="73.02"/>
<ellipse fill="none" stroke="black" cx="276.36" cy="-294.29" rx="77.02" ry="77.02"/>
<text xml:space="preserve" text-anchor="middle" x="276.36" y="-288.86" font-family="Helvetica,sans-Serif" font-size="14.00">q14 (OP_ARIT)</text>
</g>
<!-- q0&#45;&gt;q14 -->
<g id="edge9" class="edge">
<title>q0&#45;&gt;q14</title>
<path fill="none" stroke="black" d="M71.1,-594.25C75.73,-565.11 87.55,-506.61 112.6,-463.54 137.35,-420.98 174.97,-380.91 207.81,-350.45"/>
<polygon fill="black" stroke="black" points="209.91,-353.27 214.93,-343.94 205.19,-348.11 209.91,-353.27"/>
<text xml:space="preserve" text-anchor="middle" x="145.22" y="-465.99" font-family="Helvetica,sans-Serif" font-size="14.00">+ | &#45; | * | /</text>
</g>
<!-- q15 -->
<g id="node11" class="node">
<title>q15</title>
<ellipse fill="none" stroke="black" cx="276.36" cy="-118.29" rx="76.51" ry="76.51"/>
<ellipse fill="none" stroke="black" cx="276.36" cy="-118.29" rx="80.51" ry="80.51"/>
<text xml:space="preserve" text-anchor="middle" x="276.36" y="-112.86" font-family="Helvetica,sans-Serif" font-size="14.00">q15 (SIMBOLO)</text>
</g>
<!-- q0&#45;&gt;q15 -->
<g id="edge10" class="edge">
<title>q0&#45;&gt;q15</title>
<path fill="none" stroke="black" d="M69.82,-593.92C73.04,-551.89 83.61,-445.91 112.6,-362.54 138.19,-288.96 151.27,-272.17 195.85,-208.29 201.17,-200.67 207.04,-192.97 213.12,-185.46"/>
<polygon fill="black" stroke="black" points="215.69,-187.85 219.36,-177.91 210.29,-183.39 215.69,-187.85"/>
<text xml:space="preserve" text-anchor="middle" x="145.22" y="-364.99" font-family="Helvetica,sans-Serif" font-size="14.00">; | , | ( | ) | .</text>
</g>
<!-- q16 -->
<g id="node12" class="node">
<title>q16</title>
<ellipse fill="none" stroke="red" cx="688.29" cy="-784.29" rx="60.54" ry="60.54"/>
<ellipse fill="none" stroke="red" cx="688.29" cy="-784.29" rx="64.54" ry="64.54"/>
<text xml:space="preserve" text-anchor="middle" x="688.29" y="-778.86" font-family="Helvetica,sans-Serif" font-size="14.00">q16 (ERRO)</text>
</g>
<!-- q0&#45;&gt;q16 -->
<g id="edge11" class="edge">
<title>q0&#45;&gt;q16</title>
<path fill="none" stroke="black" d="M69.36,-594.03C73.64,-502.33 98.04,-93.89 195.85,-28.29 255.29,11.58 294.55,6.89 356.88,-28.29 604.47,-168.03 666.75,-545.54 682.24,-708.12"/>
<polygon fill="black" stroke="black" points="678.74,-708.3 683.14,-717.94 685.71,-707.66 678.74,-708.3"/>
<text xml:space="preserve" text-anchor="middle" x="397.75" y="-73.54" font-family="Helvetica,sans-Serif" font-size="14.00">inválido</text>
</g>
<!-- q1&#45;&gt;q1 -->
<g id="edge12" class="edge">
<title>q1&#45;&gt;q1</title>
<path fill="none" stroke="black" d="M254.16,-1166.06C256.16,-1178.64 263.56,-1187.84 276.36,-1187.84 285.16,-1187.84 291.41,-1183.49 295.11,-1176.69"/>
<polygon fill="black" stroke="black" points="298.33,-1178.09 298.1,-1167.5 291.68,-1175.92 298.33,-1178.09"/>
<text xml:space="preserve" text-anchor="middle" x="276.36" y="-1190.29" font-family="Helvetica,sans-Serif" font-size="14.00">letra | dígito</text>
</g>
<!-- q2&#45;&gt;q2 -->
<g id="edge13" class="edge">
<title>q2&#45;&gt;q2</title>
<path fill="none" stroke="black" d="M255.02,-995.9C257.87,-1008.23 264.98,-1016.81 276.36,-1016.81 284.19,-1016.81 289.99,-1012.76 293.78,-1006.22"/>
<polygon fill="black" stroke="black" points="296.89,-1007.9 297.16,-997.31 290.34,-1005.42 296.89,-1007.9"/>
<text xml:space="preserve" text-anchor="middle" x="276.36" y="-1019.26" font-family="Helvetica,sans-Serif" font-size="14.00">dígito</text>
</g>
<!-- q8 -->
<g id="node13" class="node">
<title>q8</title>
<ellipse fill="none" stroke="black" cx="487.7" cy="-925.29" rx="27" ry="18"/>
<text xml:space="preserve" text-anchor="middle" x="487.7" y="-919.86" font-family="Helvetica,sans-Serif" font-size="14.00">q8</text>
</g>
<!-- q2&#45;&gt;q8 -->
<g id="edge14" class="edge">
<title>q2&#45;&gt;q8</title>
<path fill="none" stroke="black" d="M350.29,-925.29C383.49,-925.29 421.39,-925.29 448.81,-925.29"/>
<polygon fill="black" stroke="black" points="448.73,-928.79 458.73,-925.29 448.73,-921.79 448.73,-928.79"/>
<text xml:space="preserve" text-anchor="middle" x="397.75" y="-927.74" font-family="Helvetica,sans-Serif" font-size="14.00">.</text>
</g>
<!-- q3&#45;&gt;q0 -->
<g id="edge19" class="edge">
<title>q3&#45;&gt;q0</title>
<path fill="none" stroke="black" d="M249.78,-777.9C233.15,-774.07 211.7,-767.19 195.85,-755.29 184.68,-746.9 187.49,-739.64 177.85,-729.54 152.57,-703.06 137.49,-706.12 112.6,-679.29 101.4,-667.21 91.15,-651.98 83.37,-639.09"/>
<polygon fill="black" stroke="black" points="86.51,-637.54 78.45,-630.67 80.47,-641.07 86.51,-637.54"/>
<text xml:space="preserve" text-anchor="middle" x="145.22" y="-731.99" font-family="Helvetica,sans-Serif" font-size="14.00">}</text>
</g>
<!-- q3&#45;&gt;q3 -->
<g id="edge18" class="edge">
<title>q3&#45;&gt;q3</title>
<path fill="none" stroke="black" d="M257.36,-795.21C248.69,-806.42 255.02,-818.29 276.36,-818.29 290.7,-818.29 298.26,-812.93 299.05,-806.01"/>
<polygon fill="black" stroke="black" points="302.4,-804.97 295.86,-796.64 295.77,-807.23 302.4,-804.97"/>
<text xml:space="preserve" text-anchor="middle" x="276.36" y="-820.74" font-family="Helvetica,sans-Serif" font-size="14.00">qualquer exceto }</text>
</g>
<!-- q3&#45;&gt;q16 -->
<g id="edge20" class="edge">
<title>q3&#45;&gt;q16</title>
<path fill="none" stroke="black" d="M303.62,-782.71C335.53,-783.21 391.03,-783.99 438.63,-784.29 496.9,-784.65 562.85,-784.63 612.19,-784.53"/>
<polygon fill="black" stroke="black" points="611.9,-788.03 621.89,-784.51 611.88,-781.03 611.9,-788.03"/>
<text xml:space="preserve" text-anchor="middle" x="487.7" y="-787.03" font-family="Helvetica,sans-Serif" font-size="14.00">EOF</text>
</g>
<!-- q10 -->
<g id="node15" class="node">
<title>q10</title>
<ellipse fill="none" stroke="black" cx="487.7" cy="-726.29" rx="45.08" ry="45.08"/>
<ellipse fill="none" stroke="black" cx="487.7" cy="-726.29" rx="49.08" ry="49.08"/>
<text xml:space="preserve" text-anchor="middle" x="487.7" y="-720.86" font-family="Helvetica,sans-Serif" font-size="14.00">q10 (&lt;=)</text>
</g>
<!-- q4&#45;&gt;q10 -->
<g id="edge21" class="edge">
<title>q4&#45;&gt;q10</title>
<path fill="none" stroke="black" d="M315.27,-710.73C346.42,-713.56 391.11,-717.61 427.05,-720.87"/>
<polygon fill="black" stroke="black" points="426.61,-724.35 436.88,-721.77 427.24,-717.38 426.61,-724.35"/>
<text xml:space="preserve" text-anchor="middle" x="397.75" y="-722.59" font-family="Helvetica,sans-Serif" font-size="14.00">=</text>
</g>
<!-- q11 -->
<g id="node16" class="node">
<title>q11</title>
<ellipse fill="none" stroke="black" cx="487.7" cy="-610.29" rx="44.58" ry="44.58"/>
<ellipse fill="none" stroke="black" cx="487.7" cy="-610.29" rx="48.58" ry="48.58"/>
<text xml:space="preserve" text-anchor="middle" x="487.7" y="-604.86" font-family="Helvetica,sans-Serif" font-size="14.00">q11 (&lt;&gt;)</text>
</g>
<!-- q4&#45;&gt;q11 -->
<g id="edge22" class="edge">
<title>q4&#45;&gt;q11</title>
<path fill="none" stroke="black" d="M311.93,-691.27C344.84,-676.02 394.85,-652.85 432.96,-635.19"/>
<polygon fill="black" stroke="black" points="434.39,-638.38 441.99,-631 431.45,-632.03 434.39,-638.38"/>
<text xml:space="preserve" text-anchor="middle" x="397.75" y="-664.15" font-family="Helvetica,sans-Serif" font-size="14.00">&gt;</text>
</g>
<!-- q12 -->
<g id="node17" class="node">
<title>q12</title>
<ellipse fill="none" stroke="black" cx="487.7" cy="-494.29" rx="45.08" ry="45.08"/>
<ellipse fill="none" stroke="black" cx="487.7" cy="-494.29" rx="49.08" ry="49.08"/>
<text xml:space="preserve" text-anchor="middle" x="487.7" y="-488.86" font-family="Helvetica,sans-Serif" font-size="14.00">q12 (&gt;=)</text>
</g>
<!-- q5&#45;&gt;q12 -->
<g id="edge23" class="edge">
<title>q5&#45;&gt;q12</title>
<path fill="none" stroke="black" d="M310.53,-593.59C343.91,-574.78 395.85,-545.5 434.71,-523.6"/>
<polygon fill="black" stroke="black" points="435.97,-526.9 442.96,-518.94 432.53,-520.8 435.97,-526.9"/>
<text xml:space="preserve" text-anchor="middle" x="397.75" y="-559.28" font-family="Helvetica,sans-Serif" font-size="14.00">=</text>
</g>
<!-- q13 -->
<g id="node18" class="node">
<title>q13</title>
<ellipse fill="none" stroke="black" cx="487.7" cy="-381.29" rx="42.08" ry="42.08"/>
<ellipse fill="none" stroke="black" cx="487.7" cy="-381.29" rx="46.08" ry="46.08"/>
<text xml:space="preserve" text-anchor="middle" x="487.7" y="-375.86" font-family="Helvetica,sans-Serif" font-size="14.00">q13 (:=)</text>
</g>
<!-- q7&#45;&gt;q13 -->
<g id="edge24" class="edge">
<title>q7&#45;&gt;q13</title>
<path fill="none" stroke="black" d="M311.46,-418.12C343.94,-411.29 393.39,-400.9 431.48,-392.89"/>
<polygon fill="black" stroke="black" points="431.86,-396.39 440.92,-390.91 430.42,-389.54 431.86,-396.39"/>
<text xml:space="preserve" text-anchor="middle" x="397.75" y="-407.06" font-family="Helvetica,sans-Serif" font-size="14.00">=</text>
</g>
<!-- q8&#45;&gt;q16 -->
<g id="edge17" class="edge">
<title>q8&#45;&gt;q16</title>
<path fill="none" stroke="black" d="M507.03,-912.27C533.75,-893.3 584.69,-857.13 625.61,-828.08"/>
<polygon fill="black" stroke="black" points="627.62,-830.94 633.75,-822.3 623.57,-825.24 627.62,-830.94"/>
<text xml:space="preserve" text-anchor="middle" x="571.28" y="-878.11" font-family="Helvetica,sans-Serif" font-size="14.00">outro</text>
</g>
<!-- q9 -->
<g id="node14" class="node">
<title>q9</title>
<ellipse fill="none" stroke="black" cx="688.29" cy="-949.29" rx="78.51" ry="78.51"/>
<ellipse fill="none" stroke="black" cx="688.29" cy="-949.29" rx="82.51" ry="82.51"/>
<text xml:space="preserve" text-anchor="middle" x="688.29" y="-943.86" font-family="Helvetica,sans-Serif" font-size="14.00">q9 (NUM_REAL)</text>
</g>
<!-- q8&#45;&gt;q9 -->
<g id="edge15" class="edge">
<title>q8&#45;&gt;q9</title>
<path fill="none" stroke="black" d="M514.66,-928.42C535.27,-930.91 565.38,-934.55 594.72,-938.1"/>
<polygon fill="black" stroke="black" points="594.05,-941.54 604.4,-939.27 594.89,-934.59 594.05,-941.54"/>
<text xml:space="preserve" text-anchor="middle" x="571.28" y="-939.02" font-family="Helvetica,sans-Serif" font-size="14.00">dígito</text>
</g>
<!-- q9&#45;&gt;q9 -->
<g id="edge16" class="edge">
<title>q9&#45;&gt;q9</title>
<path fill="none" stroke="black" d="M668.38,-1029.72C671.48,-1041.7 678.12,-1049.8 688.29,-1049.8 695.12,-1049.8 700.36,-1046.14 704,-1040.11"/>
<polygon fill="black" stroke="black" points="707.12,-1041.71 707.62,-1031.13 700.63,-1039.09 707.12,-1041.71"/>
<text xml:space="preserve" text-anchor="middle" x="688.29" y="-1052.25" font-family="Helvetica,sans-Serif" font-size="14.00">dígito</text>
</g>
</g>
</svg>
