<?xml version="1.0" encoding="UTF-8" standalone="no"?>
<!DOCTYPE svg PUBLIC "-//W3C//DTD SVG 1.1//EN"
 "http://www.w3.org/Graphics/SVG/1.1/DTD/svg11.dtd">
<!-- Generated by graphviz version 14.1.4 (20260321.0153)
 -->
<!-- Title: AFD Pages: 1 -->
<svg width="2315pt" height="598pt"
 viewBox="0.00 0.00 2315.00 598.00" xmlns="http://www.w3.org/2000/svg" xmlns:xlink="http://www.w3.org/1999/xlink">
<g id="graph0" class="graph" transform="scale(1 1) rotate(0) translate(4 594.44)">
<title>AFD</title>
<polygon fill="white" stroke="none" points="-4,4 -4,-594.44 2311.15,-594.44 2311.15,4 -4,4"/>
<!-- start -->
<g id="node1" class="node">
<title>start</title>
<ellipse fill="black" stroke="black" cx="1191.09" cy="-588.64" rx="1.8" ry="1.8"/>
</g>
<!-- q0 -->
<g id="node2" class="node">
<title>q0</title>
<ellipse fill="none" stroke="black" cx="1191.09" cy="-529.21" rx="20.63" ry="20.63"/>
<text xml:space="preserve" text-anchor="middle" x="1191.09" y="-523.79" font-family="Helvetica,sans-Serif" font-size="14.00">q0</text>
</g>
<!-- start&#45;&gt;q0 -->
<g id="edge1" class="edge">
<title>start&#45;&gt;q0</title>
<path fill="none" stroke="black" d="M1191.09,-586.64C1191.09,-583.38 1191.09,-572.58 1191.09,-561.3"/>
<polygon fill="black" stroke="black" points="1194.59,-561.62 1191.09,-551.62 1187.59,-561.62 1194.59,-561.62"/>
</g>
<!-- q1 -->
<g id="node3" class="node">
<title>q1</title>
<ellipse fill="none" stroke="black" cx="41.09" cy="-395.29" rx="37.09" ry="37.09"/>
<ellipse fill="none" stroke="black" cx="41.09" cy="-395.29" rx="41.09" ry="41.09"/>
<text xml:space="preserve" text-anchor="middle" x="41.09" y="-389.86" font-family="Helvetica,sans-Serif" font-size="14.00">ID/KW</text>
</g>
<!-- q0&#45;&gt;q1 -->
<g id="edge2" class="edge">
<title>q0&#45;&gt;q1</title>
<path fill="none" stroke="black" d="M1170.14,-528.19C1032.87,-527.97 264.56,-525.16 166.84,-490.59 132.93,-478.59 100.6,-453.95 77.22,-432.86"/>
<polygon fill="black" stroke="black" points="79.85,-430.53 70.13,-426.31 75.1,-435.67 79.85,-430.53"/>
<text xml:space="preserve" text-anchor="middle" x="179.97" y="-477.29" font-family="Helvetica,sans-Serif" font-size="14.00">letra</text>
</g>
<!-- q2 -->
<g id="node4" class="node">
<title>q2</title>
<ellipse fill="none" stroke="black" cx="386.09" cy="-395.29" rx="51.06" ry="51.06"/>
<ellipse fill="none" stroke="black" cx="386.09" cy="-395.29" rx="55.06" ry="55.06"/>
<text xml:space="preserve" text-anchor="middle" x="386.09" y="-389.86" font-family="Helvetica,sans-Serif" font-size="14.00">NUM_INT</text>
</g>
<!-- q0&#45;&gt;q2 -->
<g id="edge4" class="edge">
<title>q0&#45;&gt;q2</title>
<path fill="none" stroke="black" d="M1170.18,-527.34C1068.97,-522.95 629.61,-501.58 501.09,-456.84 481.41,-449.98 460.95,-440.19 442.85,-430.47"/>
<polygon fill="black" stroke="black" points="444.55,-427.41 434.1,-425.67 441.18,-433.55 444.55,-427.41"/>
<text xml:space="preserve" text-anchor="middle" x="695.45" y="-477.29" font-family="Helvetica,sans-Serif" font-size="14.00">dígito</text>
</g>
<!-- q5 -->
<g id="node6" class="node">
<title>q5</title>
<ellipse fill="none" stroke="black" cx="759.09" cy="-395.29" rx="39.09" ry="39.09"/>
<ellipse fill="none" stroke="black" cx="759.09" cy="-395.29" rx="43.09" ry="43.09"/>
<text xml:space="preserve" text-anchor="middle" x="759.09" y="-389.86" font-family="Helvetica,sans-Serif" font-size="14.00">OP_LT</text>
</g>
<!-- q0&#45;&gt;q5 -->
<g id="edge9" class="edge">
<title>q0&#45;&gt;q5</title>
<path fill="none" stroke="black" d="M1170.2,-526.26C1099.87,-519.39 872.73,-494.69 811.09,-456.84 803.62,-452.25 796.66,-446.23 790.43,-439.76"/>
<polygon fill="black" stroke="black" points="793.22,-437.64 783.94,-432.54 788.02,-442.32 793.22,-437.64"/>
<text xml:space="preserve" text-anchor="middle" x="919.79" y="-477.29" font-family="Helvetica,sans-Serif" font-size="14.00">&lt;</text>
</g>
<!-- q8 -->
<g id="node9" class="node">
<title>q8</title>
<ellipse fill="none" stroke="black" cx="866.09" cy="-395.29" rx="42.08" ry="42.08"/>
<ellipse fill="none" stroke="black" cx="866.09" cy="-395.29" rx="46.08" ry="46.08"/>
<text xml:space="preserve" text-anchor="middle" x="866.09" y="-389.86" font-family="Helvetica,sans-Serif" font-size="14.00">OP_GT</text>
</g>
<!-- q0&#45;&gt;q8 -->
<g id="edge12" class="edge">
<title>q0&#45;&gt;q8</title>
<path fill="none" stroke="black" d="M1170.24,-526.72C1122.74,-522.5 1004.17,-507.31 921.09,-456.84 914,-452.53 907.28,-447.03 901.13,-441.11"/>
<polygon fill="black" stroke="black" points="903.65,-438.68 894.17,-433.94 898.62,-443.56 903.65,-438.68"/>
<text xml:space="preserve" text-anchor="middle" x="994.03" y="-477.29" font-family="Helvetica,sans-Serif" font-size="14.00">&gt;</text>
</g>
<!-- q10 -->
<g id="node11" class="node">
<title>q10</title>
<ellipse fill="none" stroke="black" cx="977.09" cy="-395.29" rx="42.58" ry="42.58"/>
<ellipse fill="none" stroke="black" cx="977.09" cy="-395.29" rx="46.58" ry="46.58"/>
<text xml:space="preserve" text-anchor="middle" x="977.09" y="-389.86" font-family="Helvetica,sans-Serif" font-size="14.00">OP_EQ</text>
</g>
<!-- q0&#45;&gt;q10 -->
<g id="edge14" class="edge">
<title>q0&#45;&gt;q10</title>
<path fill="none" stroke="black" d="M1171.39,-522.29C1139.92,-512.22 1077.28,-489.62 1032.09,-456.84 1025.53,-452.08 1019.17,-446.43 1013.23,-440.53"/>
<polygon fill="black" stroke="black" points="1015.92,-438.28 1006.47,-433.48 1010.86,-443.12 1015.92,-438.28"/>
<text xml:space="preserve" text-anchor="middle" x="1093.93" y="-477.29" font-family="Helvetica,sans-Serif" font-size="14.00">=</text>
</g>
<!-- q11 -->
<g id="node12" class="node">
<title>q11</title>
<ellipse fill="none" stroke="black" cx="1100.09" cy="-395.29" rx="54.56" ry="54.56"/>
<ellipse fill="none" stroke="black" cx="1100.09" cy="-395.29" rx="58.56" ry="58.56"/>
<text xml:space="preserve" text-anchor="middle" x="1100.09" y="-389.86" font-family="Helvetica,sans-Serif" font-size="14.00">SMB_COL</text>
</g>
<!-- q0&#45;&gt;q11 -->
<g id="edge15" class="edge">
<title>q0&#45;&gt;q11</title>
<path fill="none" stroke="black" d="M1179.75,-511.77C1169.58,-497.03 1154.05,-474.51 1139.39,-453.26"/>
<polygon fill="black" stroke="black" points="1142.38,-451.43 1133.82,-445.19 1136.62,-455.41 1142.38,-451.43"/>
<text xml:space="preserve" text-anchor="middle" x="1166.08" y="-477.29" font-family="Helvetica,sans-Serif" font-size="14.00">:</text>
</g>
<!-- q13 -->
<g id="node14" class="node">
<title>q13</title>
<ellipse fill="none" stroke="black" cx="1222.09" cy="-395.29" rx="41.58" ry="41.58"/>
<ellipse fill="none" stroke="black" cx="1222.09" cy="-395.29" rx="45.58" ry="45.58"/>
<text xml:space="preserve" text-anchor="middle" x="1222.09" y="-389.86" font-family="Helvetica,sans-Serif" font-size="14.00">OP_AD</text>
</g>
<!-- q0&#45;&gt;q13 -->
<g id="edge17" class="edge">
<title>q0&#45;&gt;q13</title>
<path fill="none" stroke="black" d="M1195.67,-508.75C1199.23,-493.57 1204.37,-471.7 1209.17,-451.28"/>
<polygon fill="black" stroke="black" points="1212.56,-452.15 1211.44,-441.61 1205.75,-450.55 1212.56,-452.15"/>
<text xml:space="preserve" text-anchor="middle" x="1207.03" y="-477.29" font-family="Helvetica,sans-Serif" font-size="14.00">+</text>
</g>
<!-- q14 -->
<g id="node15" class="node">
<title>q14</title>
<ellipse fill="none" stroke="black" cx="1336.09" cy="-395.29" rx="46.07" ry="46.07"/>
<ellipse fill="none" stroke="black" cx="1336.09" cy="-395.29" rx="50.07" ry="50.07"/>
<text xml:space="preserve" text-anchor="middle" x="1336.09" y="-389.86" font-family="Helvetica,sans-Serif" font-size="14.00">OP_MIN</text>
</g>
<!-- q0&#45;&gt;q14 -->
<g id="edge18" class="edge">
<title>q0&#45;&gt;q14</title>
<path fill="none" stroke="black" d="M1207.05,-515.8C1224.64,-501.93 1253.57,-478.56 1277.09,-456.84 1282.67,-451.69 1288.4,-446.14 1294,-440.58"/>
<polygon fill="black" stroke="black" points="1296.44,-443.09 1301.01,-433.53 1291.48,-438.16 1296.44,-443.09"/>
<text xml:space="preserve" text-anchor="middle" x="1258.74" y="-477.29" font-family="Helvetica,sans-Serif" font-size="14.00">&#45;</text>
</g>
<!-- q15 -->
<g id="node16" class="node">
<title>q15</title>
<ellipse fill="none" stroke="black" cx="1457.09" cy="-395.29" rx="48.57" ry="48.57"/>
<ellipse fill="none" stroke="black" cx="1457.09" cy="-395.29" rx="52.57" ry="52.57"/>
<text xml:space="preserve" text-anchor="middle" x="1457.09" y="-389.86" font-family="Helvetica,sans-Serif" font-size="14.00">OP_MUL</text>
</g>
<!-- q0&#45;&gt;q15 -->
<g id="edge19" class="edge">
<title>q0&#45;&gt;q15</title>
<path fill="none" stroke="black" d="M1211.49,-524.18C1249.73,-515.97 1333.87,-494.8 1395.09,-456.84 1401.54,-452.84 1407.84,-448.07 1413.82,-442.99"/>
<polygon fill="black" stroke="black" points="1416.08,-445.66 1421.19,-436.38 1411.41,-440.45 1416.08,-445.66"/>
<text xml:space="preserve" text-anchor="middle" x="1361.48" y="-477.29" font-family="Helvetica,sans-Serif" font-size="14.00">*</text>
</g>
<!-- q16 -->
<g id="node17" class="node">
<title>q16</title>
<ellipse fill="none" stroke="black" cx="1576.09" cy="-395.29" rx="44.08" ry="44.08"/>
<ellipse fill="none" stroke="black" cx="1576.09" cy="-395.29" rx="48.08" ry="48.08"/>
<text xml:space="preserve" text-anchor="middle" x="1576.09" y="-389.86" font-family="Helvetica,sans-Serif" font-size="14.00">OP_DIV</text>
</g>
<!-- q0&#45;&gt;q16 -->
<g id="edge20" class="edge">
<title>q0&#45;&gt;q16</title>
<path fill="none" stroke="black" d="M1211.8,-527.91C1265.96,-526.26 1414.78,-516.25 1519.09,-456.84 1526.16,-452.81 1532.89,-447.62 1539.07,-441.97"/>
<polygon fill="black" stroke="black" points="1541.37,-444.62 1546.07,-435.12 1536.47,-439.62 1541.37,-444.62"/>
<text xml:space="preserve" text-anchor="middle" x="1480.28" y="-477.29" font-family="Helvetica,sans-Serif" font-size="14.00">/</text>
</g>
<!-- q17 -->
<g id="node18" class="node">
<title>q17</title>
<ellipse fill="none" stroke="black" cx="1702.09" cy="-395.29" rx="55.55" ry="55.55"/>
<ellipse fill="none" stroke="black" cx="1702.09" cy="-395.29" rx="59.55" ry="59.55"/>
<text xml:space="preserve" text-anchor="middle" x="1702.09" y="-389.86" font-family="Helvetica,sans-Serif" font-size="14.00">SMB_SEM</text>
</g>
<!-- q0&#45;&gt;q17 -->
<g id="edge21" class="edge">
<title>q0&#45;&gt;q17</title>
<path fill="none" stroke="black" d="M1211.9,-526.56C1288.95,-520.17 1557.49,-495.52 1633.09,-456.84 1639.57,-453.52 1645.94,-449.46 1652.03,-445.02"/>
<polygon fill="black" stroke="black" points="1653.75,-448.11 1659.52,-439.23 1649.47,-442.57 1653.75,-448.11"/>
<text xml:space="preserve" text-anchor="middle" x="1574.64" y="-477.29" font-family="Helvetica,sans-Serif" font-size="14.00">;</text>
</g>
<!-- q18 -->
<g id="node19" class="node">
<title>q18</title>
<ellipse fill="none" stroke="black" cx="1841.09" cy="-395.29" rx="57.55" ry="57.55"/>
<ellipse fill="none" stroke="black" cx="1841.09" cy="-395.29" rx="61.55" ry="61.55"/>
<text xml:space="preserve" text-anchor="middle" x="1841.09" y="-389.86" font-family="Helvetica,sans-Serif" font-size="14.00">SMB_COM</text>
</g>
<!-- q0&#45;&gt;q18 -->
<g id="edge22" class="edge">
<title>q0&#45;&gt;q18</title>
<path fill="none" stroke="black" d="M1212.12,-527.4C1303.83,-523.57 1668.83,-505.49 1771.09,-456.84 1777.28,-453.89 1783.35,-450.25 1789.17,-446.22"/>
<polygon fill="black" stroke="black" points="1790.92,-449.28 1796.87,-440.52 1786.75,-443.65 1790.92,-449.28"/>
<text xml:space="preserve" text-anchor="middle" x="1717.22" y="-477.29" font-family="Helvetica,sans-Serif" font-size="14.00">,</text>
</g>
<!-- q19 -->
<g id="node20" class="node">
<title>q19</title>
<ellipse fill="none" stroke="black" cx="1979.09" cy="-395.29" rx="54.56" ry="54.56"/>
<ellipse fill="none" stroke="black" cx="1979.09" cy="-395.29" rx="58.56" ry="58.56"/>
<text xml:space="preserve" text-anchor="middle" x="1979.09" y="-389.86" font-family="Helvetica,sans-Serif" font-size="14.00">SMB_OPA</text>
</g>
<!-- q0&#45;&gt;q19 -->
<g id="edge23" class="edge">
<title>q0&#45;&gt;q19</title>
<path fill="none" stroke="black" d="M1211.96,-527.53C1283.45,-525.04 1525.08,-515.2 1723.09,-490.59 1807.77,-480.06 1835.47,-494.4 1912.09,-456.84 1918.37,-453.76 1924.5,-449.91 1930.34,-445.66"/>
<polygon fill="black" stroke="black" points="1932.33,-448.54 1938.06,-439.63 1928.02,-443.03 1932.33,-448.54"/>
<text xml:space="preserve" text-anchor="middle" x="1869.75" y="-477.29" font-family="Helvetica,sans-Serif" font-size="14.00">(</text>
</g>
<!-- q20 -->
<g id="node21" class="node">
<title>q20</title>
<ellipse fill="none" stroke="black" cx="2113.09" cy="-395.29" rx="53.56" ry="53.56"/>
<ellipse fill="none" stroke="black" cx="2113.09" cy="-395.29" rx="57.56" ry="57.56"/>
<text xml:space="preserve" text-anchor="middle" x="2113.09" y="-389.86" font-family="Helvetica,sans-Serif" font-size="14.00">SMB_CPA</text>
</g>
<!-- q0&#45;&gt;q20 -->
<g id="edge24" class="edge">
<title>q0&#45;&gt;q20</title>
<path fill="none" stroke="black" d="M1211.92,-528.13C1295.63,-527.57 1615.51,-523.3 1876.09,-490.59 1952.95,-480.94 1977.98,-491.82 2047.09,-456.84 2053.37,-453.66 2059.5,-449.71 2065.33,-445.36"/>
<polygon fill="black" stroke="black" points="2067.41,-448.18 2073.03,-439.2 2063.04,-442.71 2067.41,-448.18"/>
<text xml:space="preserve" text-anchor="middle" x="2005.87" y="-477.29" font-family="Helvetica,sans-Serif" font-size="14.00">)</text>
</g>
<!-- q21 -->
<g id="node22" class="node">
<title>q21</title>
<ellipse fill="none" stroke="black" cx="2248.09" cy="-395.29" rx="55.06" ry="55.06"/>
<ellipse fill="none" stroke="black" cx="2248.09" cy="-395.29" rx="59.06" ry="59.06"/>
<text xml:space="preserve" text-anchor="middle" x="2248.09" y="-389.86" font-family="Helvetica,sans-Serif" font-size="14.00">SMB_DOT</text>
</g>
<!-- q0&#45;&gt;q21 -->
<g id="edge25" class="edge">
<title>q0&#45;&gt;q21</title>
<path fill="none" stroke="black" d="M1212.12,-528.42C1305.95,-529.12 1695.56,-529.4 2012.09,-490.59 2087.68,-481.32 2111.95,-490.84 2180.09,-456.84 2186.4,-453.69 2192.58,-449.8 2198.48,-445.52"/>
<polygon fill="black" stroke="black" points="2200.54,-448.35 2206.3,-439.45 2196.25,-442.81 2200.54,-448.35"/>
<text xml:space="preserve" text-anchor="middle" x="2136.04" y="-477.29" font-family="Helvetica,sans-Serif" font-size="14.00">.</text>
</g>
<!-- q22 -->
<g id="node24" class="node">
<title>q22</title>
<ellipse fill="none" stroke="black" cx="543.09" cy="-395.29" rx="32.6" ry="32.6"/>
<text xml:space="preserve" text-anchor="middle" x="543.09" y="-389.86" font-family="Helvetica,sans-Serif" font-size="14.00">COM</text>
</g>
<!-- q0&#45;&gt;q22 -->
<g id="edge26" class="edge">
<title>q0&#45;&gt;q22</title>
<path fill="none" stroke="black" d="M1170.11,-528.58C1107.95,-529.19 919.74,-527.61 769.59,-490.59 700.87,-473.64 625.92,-438.96 581.8,-416.71"/>
<polygon fill="black" stroke="black" points="583.64,-413.72 573.14,-412.3 580.46,-419.96 583.64,-413.72"/>
<text xml:space="preserve" text-anchor="middle" x="771.84" y="-477.29" font-family="Helvetica,sans-Serif" font-size="14.00">{</text>
</g>
<!-- qERRO -->
<g id="node25" class="node">
<title>qERRO</title>
<ellipse fill="none" stroke="red" cx="243.09" cy="-230.91" rx="37.09" ry="37.09"/>
<text xml:space="preserve" text-anchor="middle" x="243.09" y="-225.49" font-family="Helvetica,sans-Serif" font-size="14.00">ERRO</text>
</g>
<!-- q0&#45;&gt;qERRO -->
<g id="edge30" class="edge">
<title>q0&#45;&gt;qERRO</title>
<path fill="none" stroke="black" d="M1170.08,-528.36C1034.16,-529.09 282.84,-529.81 216.34,-456.84 171.34,-407.45 197.86,-324.54 220.78,-274.36"/>
<polygon fill="black" stroke="black" points="223.84,-276.08 224.95,-265.54 217.51,-273.09 223.84,-276.08"/>
<text xml:space="preserve" text-anchor="middle" x="269.22" y="-389.86" font-family="Helvetica,sans-Serif" font-size="14.00">caractere inválido</text>
</g>
<!-- q1&#45;&gt;q1 -->
<g id="edge3" class="edge">
<title>q1&#45;&gt;q1</title>
<path fill="none" stroke="black" d="M79.17,-411.66C90.94,-411.33 100.18,-405.87 100.18,-395.29 100.18,-388.34 96.2,-383.6 90.14,-381.07"/>
<polygon fill="black" stroke="black" points="91.14,-377.7 80.66,-379.2 89.79,-384.57 91.14,-377.7"/>
<text xml:space="preserve" text-anchor="middle" x="135.43" y="-389.86" font-family="Helvetica,sans-Serif" font-size="14.00">letra | dígito</text>
</g>
<!-- q1&#45;&gt;qERRO -->
<g id="edge31" class="edge">
<title>q1&#45;&gt;qERRO</title>
<path fill="none" stroke="black" stroke-dasharray="1,5" d="M70.57,-366.57C91.49,-347.29 120.51,-321.33 147.34,-299.99 165.25,-285.74 185.86,-270.9 203.36,-258.73"/>
<polygon fill="black" stroke="black" points="205.24,-261.68 211.48,-253.12 201.26,-255.92 205.24,-261.68"/>
<text xml:space="preserve" text-anchor="middle" x="170.22" y="-302.44" font-family="Helvetica,sans-Serif" font-size="14.00">inválido</text>
</g>
<!-- q2&#45;&gt;q2 -->
<g id="edge5" class="edge">
<title>q2&#45;&gt;q2</title>
<path fill="none" stroke="black" d="M439.29,-411.19C450.8,-409.64 459.16,-404.34 459.16,-395.29 459.16,-389.49 455.73,-385.23 450.24,-382.51"/>
<polygon fill="black" stroke="black" points="451.32,-379.18 440.74,-379.79 449.4,-385.91 451.32,-379.18"/>
<text xml:space="preserve" text-anchor="middle" x="475.66" y="-389.86" font-family="Helvetica,sans-Serif" font-size="14.00">dígito</text>
</g>
<!-- q3 -->
<g id="node23" class="node">
<title>q3</title>
<ellipse fill="none" stroke="black" cx="386.09" cy="-230.91" rx="20.63" ry="20.63"/>
<text xml:space="preserve" text-anchor="middle" x="386.09" y="-225.49" font-family="Helvetica,sans-Serif" font-size="14.00">q3</text>
</g>
<!-- q2&#45;&gt;q3 -->
<g id="edge6" class="edge">
<title>q2&#45;&gt;q3</title>
<path fill="none" stroke="black" d="M386.09,-339.77C386.09,-314.39 386.09,-285.1 386.09,-263.45"/>
<polygon fill="black" stroke="black" points="389.59,-263.49 386.09,-253.49 382.59,-263.49 389.59,-263.49"/>
<text xml:space="preserve" text-anchor="middle" x="387.97" y="-302.44" font-family="Helvetica,sans-Serif" font-size="14.00">.</text>
</g>
<!-- q2&#45;&gt;qERRO -->
<g id="edge32" class="edge">
<title>q2&#45;&gt;qERRO</title>
<path fill="none" stroke="black" stroke-dasharray="1,5" d="M350.01,-353.31C326.77,-326.92 296.85,-292.95 274.57,-267.66"/>
<polygon fill="black" stroke="black" points="277.27,-265.43 268.04,-260.24 272.02,-270.06 277.27,-265.43"/>
<text xml:space="preserve" text-anchor="middle" x="337.47" y="-302.44" font-family="Helvetica,sans-Serif" font-size="14.00">inválido</text>
</g>
<!-- q4 -->
<g id="node5" class="node">
<title>q4</title>
<ellipse fill="none" stroke="black" cx="386.09" cy="-64.05" rx="60.05" ry="60.05"/>
<ellipse fill="none" stroke="black" cx="386.09" cy="-64.05" rx="64.05" ry="64.05"/>
<text xml:space="preserve" text-anchor="middle" x="386.09" y="-58.62" font-family="Helvetica,sans-Serif" font-size="14.00">NUM_REAL</text>
</g>
<!-- q4&#45;&gt;q4 -->
<g id="edge8" class="edge">
<title>q4&#45;&gt;q4</title>
<path fill="none" stroke="black" d="M448.34,-80.04C459.96,-78.07 468.14,-72.74 468.14,-64.05 468.14,-58.48 464.78,-54.29 459.31,-51.48"/>
<polygon fill="black" stroke="black" points="460.38,-48.14 449.79,-48.5 458.29,-54.82 460.38,-48.14"/>
<text xml:space="preserve" text-anchor="middle" x="484.64" y="-58.62" font-family="Helvetica,sans-Serif" font-size="14.00">dígito</text>
</g>
<!-- q6 -->
<g id="node7" class="node">
<title>q6</title>
<ellipse fill="none" stroke="black" cx="759.09" cy="-230.91" rx="40.09" ry="40.09"/>
<ellipse fill="none" stroke="black" cx="759.09" cy="-230.91" rx="44.09" ry="44.09"/>
<text xml:space="preserve" text-anchor="middle" x="759.09" y="-225.49" font-family="Helvetica,sans-Serif" font-size="14.00">OP_LE</text>
</g>
<!-- q5&#45;&gt;q6 -->
<g id="edge10" class="edge">
<title>q5&#45;&gt;q6</title>
<path fill="none" stroke="black" d="M759.09,-352.05C759.09,-332.15 759.09,-308.16 759.09,-286.86"/>
<polygon fill="black" stroke="black" points="762.59,-286.87 759.09,-276.87 755.59,-286.87 762.59,-286.87"/>
<text xml:space="preserve" text-anchor="middle" x="763.22" y="-302.44" font-family="Helvetica,sans-Serif" font-size="14.00">=</text>
</g>
<!-- q7 -->
<g id="node8" class="node">
<title>q7</title>
<ellipse fill="none" stroke="black" cx="651.09" cy="-230.91" rx="41.58" ry="41.58"/>
<ellipse fill="none" stroke="black" cx="651.09" cy="-230.91" rx="45.58" ry="45.58"/>
<text xml:space="preserve" text-anchor="middle" x="651.09" y="-225.49" font-family="Helvetica,sans-Serif" font-size="14.00">OP_NE</text>
</g>
<!-- q5&#45;&gt;q7 -->
<g id="edge11" class="edge">
<title>q5&#45;&gt;q7</title>
<path fill="none" stroke="black" d="M735.66,-359.05C720.03,-335.57 699.32,-304.43 682.31,-278.84"/>
<polygon fill="black" stroke="black" points="685.27,-276.99 676.82,-270.6 679.45,-280.86 685.27,-276.99"/>
<text xml:space="preserve" text-anchor="middle" x="709.22" y="-302.44" font-family="Helvetica,sans-Serif" font-size="14.00">&gt;</text>
</g>
<!-- q9 -->
<g id="node10" class="node">
<title>q9</title>
<ellipse fill="none" stroke="black" cx="868.09" cy="-230.91" rx="42.58" ry="42.58"/>
<ellipse fill="none" stroke="black" cx="868.09" cy="-230.91" rx="46.58" ry="46.58"/>
<text xml:space="preserve" text-anchor="middle" x="868.09" y="-225.49" font-family="Helvetica,sans-Serif" font-size="14.00">OP_GE</text>
</g>
<!-- q8&#45;&gt;q9 -->
<g id="edge13" class="edge">
<title>q8&#45;&gt;q9</title>
<path fill="none" stroke="black" d="M866.65,-349.06C866.88,-330.47 867.15,-308.72 867.39,-289.05"/>
<polygon fill="black" stroke="black" points="870.89,-289.3 867.51,-279.26 863.89,-289.22 870.89,-289.3"/>
<text xml:space="preserve" text-anchor="middle" x="871.34" y="-302.44" font-family="Helvetica,sans-Serif" font-size="14.00">=</text>
</g>
<!-- q12 -->
<g id="node13" class="node">
<title>q12</title>
<ellipse fill="none" stroke="black" cx="1100.09" cy="-230.91" rx="47.07" ry="47.07"/>
<ellipse fill="none" stroke="black" cx="1100.09" cy="-230.91" rx="51.07" ry="51.07"/>
<text xml:space="preserve" text-anchor="middle" x="1100.09" y="-225.49" font-family="Helvetica,sans-Serif" font-size="14.00">OP_ASS</text>
</g>
<!-- q11&#45;&gt;q12 -->
<g id="edge16" class="edge">
<title>q11&#45;&gt;q12</title>
<path fill="none" stroke="black" d="M1100.09,-336.58C1100.09,-322.63 1100.09,-307.66 1100.09,-293.54"/>
<polygon fill="black" stroke="black" points="1103.59,-293.94 1100.09,-283.94 1096.59,-293.94 1103.59,-293.94"/>
<text xml:space="preserve" text-anchor="middle" x="1104.22" y="-302.44" font-family="Helvetica,sans-Serif" font-size="14.00">=</text>
</g>
<!-- q3&#45;&gt;q4 -->
<g id="edge7" class="edge">
<title>q3&#45;&gt;q4</title>
<path fill="none" stroke="black" d="M386.09,-210.03C386.09,-192.42 386.09,-165.58 386.09,-139.76"/>
<polygon fill="black" stroke="black" points="389.59,-139.91 386.09,-129.91 382.59,-139.91 389.59,-139.91"/>
<text xml:space="preserve" text-anchor="middle" x="402.59" y="-148.54" font-family="Helvetica,sans-Serif" font-size="14.00">dígito</text>
</g>
<!-- q22&#45;&gt;q0 -->
<g id="edge28" class="edge">
<title>q22&#45;&gt;q0</title>
<path fill="none" stroke="black" d="M573.23,-408.73C605.83,-421.88 659.54,-442.64 707.09,-456.84 872.76,-506.28 1080.97,-522.22 1159.33,-526.68"/>
<polygon fill="black" stroke="black" points="1158.66,-530.15 1168.84,-527.19 1159.04,-523.16 1158.66,-530.15"/>
<text xml:space="preserve" text-anchor="middle" x="839.69" y="-477.29" font-family="Helvetica,sans-Serif" font-size="14.00">}</text>
</g>
<!-- q22&#45;&gt;q22 -->
<g id="edge27" class="edge">
<title>q22&#45;&gt;q22</title>
<path fill="none" stroke="black" d="M571.7,-411.53C583.6,-412.66 593.69,-407.24 593.69,-395.29 593.69,-387.44 589.35,-382.41 583,-380.2"/>
<polygon fill="black" stroke="black" points="583.51,-376.73 573.21,-379.19 582.8,-383.7 583.51,-376.73"/>
<text xml:space="preserve" text-anchor="middle" x="645.82" y="-389.86" font-family="Helvetica,sans-Serif" font-size="14.00">qualquer exceto }</text>
</g>
<!-- q22&#45;&gt;qERRO -->
<g id="edge29" class="edge">
<title>q22&#45;&gt;qERRO</title>
<path fill="none" stroke="black" d="M528.4,-365.71C521.42,-354.45 512.16,-342.21 501.09,-333.74 446.77,-292.13 419.64,-307.36 356.09,-281.99 333.01,-272.77 307.69,-261.64 286.88,-252.22"/>
<polygon fill="black" stroke="black" points="288.37,-249.06 277.81,-248.1 285.47,-255.43 288.37,-249.06"/>
<text xml:space="preserve" text-anchor="middle" x="485.5" y="-302.44" font-family="Helvetica,sans-Serif" font-size="14.00">EOF</text>
</g>
</g>
</svg>
